<svg width="24" height="24" viewBox="0 0 24 24" fill="none" xmlns="http://www.w3.org/2000/svg">
    <path d="M18 13C18.5523 13 19 12.5523 19 12C19 11.4477 18.5523 11 18 11V13ZM4.29289 11.2929C3.90237 11.6834 3.90237 12.3166 4.29289 12.7071L10.6569 19.0711C11.0474 19.4616 11.6805 19.4616 12.0711 19.0711C12.4616 18.6805 12.4616 18.0474 12.0711 17.6569L6.41421 12L12.0711 6.34315C12.4616 5.95262 12.4616 5.31946 12.0711 4.92893C11.6805 4.53841 11.0474 4.53841 10.6569 4.92893L4.29289 11.2929ZM18 11L5 11V13L18 13V11Z" fill="#757575"/>
</svg>
