<svg xmlns="http://www.w3.org/2000/svg" width="48" height="48" viewBox="0 0 48 48" fill="none">
    <path d="M4.305 42.8399C3.56228 42.836 2.85111 42.5392 2.32592 42.014C1.80073 41.4888 1.50394 40.7776 1.5 40.0349V16.9649C1.50396 15.4265 2.11683 13.9523 3.20462 12.8645C4.29241 11.7767 5.76664 11.1639 7.305 11.1599H34.68C36.221 11.1599 37.699 11.771 38.7901 12.8592C39.8811 13.9475 40.496 15.424 40.5 16.9649V32.3399C40.5 33.8809 39.8889 35.3589 38.8007 36.45C37.7124 37.541 36.236 38.1559 34.695 38.1599H11.865C11.6057 38.162 11.3537 38.246 11.145 38.3999L6 42.2849C5.50942 42.6474 4.91499 42.8421 4.305 42.8399ZM7.305 14.1599C6.56228 14.1639 5.85111 14.4606 5.32592 14.9858C4.80073 15.511 4.50394 16.2222 4.5 16.9649V39.6599L9.345 35.9999C10.074 35.4585 10.9569 35.1642 11.865 35.1599H34.68C35.4279 35.1599 36.1452 34.8628 36.674 34.334C37.2029 33.8051 37.5 33.0878 37.5 32.3399V16.9649C37.4961 16.2222 37.1993 15.511 36.6741 14.9858C36.1489 14.4606 35.4377 14.1639 34.695 14.1599H7.305Z" fill="#FBFBFB"/>
    <path d="M26.91 26.2949C27.7385 26.2949 28.41 25.6234 28.41 24.7949C28.41 23.9665 27.7385 23.2949 26.91 23.2949C26.0816 23.2949 25.41 23.9665 25.41 24.7949C25.41 25.6234 26.0816 26.2949 26.91 26.2949Z" fill="#FBFBFB"/>
    <path d="M21.09 26.2949C21.9184 26.2949 22.59 25.6234 22.59 24.7949C22.59 23.9665 21.9184 23.2949 21.09 23.2949C20.2615 23.2949 19.59 23.9665 19.59 24.7949C19.59 25.6234 20.2615 26.2949 21.09 26.2949Z" fill="#FBFBFB"/>
    <path d="M15.09 26.2949C15.9184 26.2949 16.59 25.6234 16.59 24.7949C16.59 23.9665 15.9184 23.2949 15.09 23.2949C14.2615 23.2949 13.59 23.9665 13.59 24.7949C13.59 25.6234 14.2615 26.2949 15.09 26.2949Z" fill="#FBFBFB"/>
    <path d="M45 27.6599C44.6022 27.6599 44.2206 27.5019 43.9393 27.2206C43.658 26.9393 43.5 26.5577 43.5 26.1599V10.9649C43.4961 10.2222 43.1993 9.51102 42.6741 8.98583C42.1489 8.46064 41.4377 8.16385 40.695 8.15991H10.5C10.1022 8.15991 9.72064 8.00188 9.43934 7.72057C9.15804 7.43927 9 7.05774 9 6.65991C9 6.26209 9.15804 5.88056 9.43934 5.59925C9.72064 5.31795 10.1022 5.15991 10.5 5.15991H40.695C42.2334 5.16387 43.7076 5.77674 44.7954 6.86453C45.8832 7.95232 46.496 9.42655 46.5 10.9649V26.1599C46.5 26.5577 46.342 26.9393 46.0607 27.2206C45.7794 27.5019 45.3978 27.6599 45 27.6599Z" fill="#FBFBFB"/>
</svg>
